<?xml version="1.0" encoding="utf-8"?>
<!-- Generator: Adobe Illustrator 17.0.0, SVG Export Plug-In . SVG Version: 6.00 Build 0)  -->
<!DOCTYPE svg PUBLIC "-//W3C//DTD SVG 1.1//EN" "http://www.w3.org/Graphics/SVG/1.1/DTD/svg11.dtd">
<svg version="1.1" id="图层_1" xmlns="http://www.w3.org/2000/svg" xmlns:xlink="http://www.w3.org/1999/xlink" x="0px" y="0px"
	 width="200px" height="200px" viewBox="0 0 200 200" enable-background="new 0 0 200 200" xml:space="preserve">
<path d="M101.799,105.271c0.1-0.101,0.198-0.204,0.293-0.31c0.096-0.086,0.191-0.174,0.284-0.266c2.55-2.55,2.55-6.684,0-9.233
	L41.572,34.66c-2.55-2.55-6.684-2.55-9.234,0c-2.549,2.55-2.549,6.682,0,9.232l56.189,56.186l-55.612,55.609
	c-2.867,2.869-3.126,7.259-0.577,9.809c2.55,2.55,6.943,2.291,9.81-0.577L101.799,105.271z M167.661,104.695
	c2.55-2.55,2.55-6.684,0-9.233L106.857,34.66c-2.55-2.55-6.684-2.55-9.234,0c-2.549,2.55-2.549,6.682,0,9.232l56.188,56.186
	L98.2,155.688c-2.868,2.869-3.126,7.259-0.577,9.809c2.55,2.55,6.942,2.291,9.81-0.577l59.651-59.649
	c0.1-0.101,0.198-0.204,0.293-0.31C167.474,104.876,167.569,104.788,167.661,104.695L167.661,104.695z" fill="#43A761"/>
</svg>
